<?xml version="1.0" encoding="UTF-8"?>
<svg xmlns="http://www.w3.org/2000/svg" viewBox="0 0 1200 900" font-family="Segoe UI, Arial, sans-serif">
  <defs>
    <marker id="arrow" markerWidth="10" markerHeight="10" refX="9" refY="3" orient="auto">
      <path d="M0,0 L0,6 L9,3 z" fill="#0d4b3c"/>
    </marker>
    <marker id="arrow-orange" markerWidth="10" markerHeight="10" refX="9" refY="3" orient="auto">
      <path d="M0,0 L0,6 L9,3 z" fill="#dc7417"/>
    </marker>
  </defs>
  
  <rect width="1200" height="900" fill="#f7f3e9"/>
  
  <text x="600" y="40" text-anchor="middle" font-size="24" font-weight="bold" fill="#0d4b3c">DFD Level 1 — Decomposed Processes</text>
  <text x="600" y="65" text-anchor="middle" font-size="14" fill="#0d4b3c">Smart Health Resource Allocator</text>
  
  <rect x="50" y="400" width="140" height="70" fill="#fff" stroke="#0d4b3c" stroke-width="2" rx="5"/>
  <text x="120" y="435" text-anchor="middle" font-size="13" font-weight="bold" fill="#0d4b3c">NGO User</text>
  <text x="120" y="455" text-anchor="middle" font-size="11" fill="#0d4b3c">(Admin/Officer)</text>
  
  <rect x="1010" y="200" width="140" height="100" fill="#fff" stroke="#dc7417" stroke-width="2" rx="5"/>
  <text x="1080" y="230" text-anchor="middle" font-size="12" font-weight="bold" fill="#dc7417">External Sources</text>
  <text x="1080" y="250" text-anchor="middle" font-size="10" fill="#dc7417">WHO, NDMA, Census</text>
  <text x="1080" y="265" text-anchor="middle" font-size="10" fill="#dc7417">PBS, BHU, Rescue 1122</text>
  <text x="1080" y="280" text-anchor="middle" font-size="10" fill="#dc7417">OSM, SES</text>
  
  <rect x="1010" y="550" width="140" height="60" fill="#fff" stroke="#dc7417" stroke-width="2" rx="5"/>
  <text x="1080" y="580" text-anchor="middle" font-size="12" font-weight="bold" fill="#dc7417">Grok API</text>
  <text x="1080" y="595" text-anchor="middle" font-size="10" fill="#dc7417">(Optional)</text>
  
  <rect x="520" y="100" width="160" height="60" fill="#fff" stroke="#148064" stroke-width="2"/>
  <path d="M 520 100 L 520 160 M 540 100 L 540 160" stroke="#148064" stroke-width="2" fill="none"/>
  <text x="540" y="125" font-size="11" font-weight="bold" fill="#148064">D1</text>
  <text x="560" y="125" font-size="11" fill="#148064">villages.json</text>
  <text x="540" y="145" font-size="10" fill="#148064">(15 records)</text>
  
  <rect x="520" y="750" width="160" height="60" fill="#fff" stroke="#148064" stroke-width="2"/>
  <path d="M 520 750 L 520 810 M 540 750 L 540 810" stroke="#148064" stroke-width="2" fill="none"/>
  <text x="540" y="775" font-size="11" font-weight="bold" fill="#148064">D2</text>
  <text x="560" y="775" font-size="11" fill="#148064">users.db</text>
  <text x="540" y="795" font-size="10" fill="#148064">(SQLite)</text>
  
  <circle cx="300" cy="650" r="50" fill="#0d4b3c" stroke="#0d4b3c" stroke-width="2"/>
  <text x="300" y="645" text-anchor="middle" font-size="14" font-weight="bold" fill="#fff">1.0</text>
  <text x="300" y="665" text-anchor="middle" font-size="11" fill="#fff">Auth</text>
  
  <circle cx="600" cy="300" r="55" fill="#0d4b3c" stroke="#0d4b3c" stroke-width="2"/>
  <text x="600" y="295" text-anchor="middle" font-size="14" font-weight="bold" fill="#fff">2.0</text>
  <text x="600" y="315" text-anchor="middle" font-size="11" fill="#fff">Data &amp;</text>
  <text x="600" y="330" text-anchor="middle" font-size="11" fill="#fff">Scoring</text>
  
  <circle cx="350" cy="435" r="50" fill="#0d4b3c" stroke="#0d4b3c" stroke-width="2"/>
  <text x="350" y="430" text-anchor="middle" font-size="14" font-weight="bold" fill="#fff">3.0</text>
  <text x="350" y="450" text-anchor="middle" font-size="11" fill="#fff">Dashboard</text>
  
  <circle cx="750" cy="550" r="55" fill="#0d4b3c" stroke="#0d4b3c" stroke-width="2"/>
  <text x="750" y="545" text-anchor="middle" font-size="14" font-weight="bold" fill="#fff">4.0</text>
  <text x="750" y="565" text-anchor="middle" font-size="11" fill="#fff">Chat</text>
  <text x="750" y="580" text-anchor="middle" font-size="11" fill="#fff">Engine</text>
  
  <circle cx="900" cy="350" r="50" fill="#dc7417" stroke="#dc7417" stroke-width="2"/>
  <text x="900" y="345" text-anchor="middle" font-size="14" font-weight="bold" fill="#fff">5.0</text>
  <text x="900" y="365" text-anchor="middle" font-size="11" fill="#fff">External</text>
  <text x="900" y="380" text-anchor="middle" font-size="11" fill="#fff">Sources</text>
  
  <path d="M 170 450 Q 230 550 270 630" stroke="#0d4b3c" stroke-width="2" fill="none" marker-end="url(#arrow)"/>
  <text x="190" y="540" font-size="10" fill="#0d4b3c" transform="rotate(-50 190 540)">Login/Signup</text>
  
  <path d="M 340 680 Q 430 750 530 770" stroke="#0d4b3c" stroke-width="2" fill="none" marker-end="url(#arrow)"/>
  <text x="420" y="730" font-size="10" fill="#0d4b3c">Verify/Create</text>
  <text x="420" y="745" font-size="10" fill="#0d4b3c">Session</text>
  
  <path d="M 320 610 Q 340 520 345 470" stroke="#0d4b3c" stroke-width="2" fill="none" marker-end="url(#arrow)"/>
  <text x="310" y="540" font-size="10" fill="#0d4b3c">Session</text>
  <text x="310" y="555" font-size="10" fill="#0d4b3c">Token</text>
  
  <path d="M 190 435 L 305 435" stroke="#0d4b3c" stroke-width="2" fill="none" marker-end="url(#arrow)"/>
  <text x="240" y="425" font-size="10" fill="#0d4b3c">Requests</text>
  
  <path d="M 310 460 Q 230 470 180 460" stroke="#0d4b3c" stroke-width="2" fill="none" marker-end="url(#arrow)"/>
  <text x="240" y="480" font-size="10" fill="#0d4b3c">Rendered UI</text>
  
  <path d="M 390 410 Q 480 360 560 320" stroke="#0d4b3c" stroke-width="2" fill="none" marker-end="url(#arrow)"/>
  <text x="460" y="360" font-size="10" fill="#0d4b3c">Request</text>
  <text x="460" y="375" font-size="10" fill="#0d4b3c">Data</text>
  
  <path d="M 600 250 L 600 155" stroke="#0d4b3c" stroke-width="2" fill="none" marker-end="url(#arrow)"/>
  <text x="610" y="200" font-size="10" fill="#0d4b3c">Read</text>
  <text x="610" y="215" font-size="10" fill="#0d4b3c">Villages</text>
  
  <path d="M 560 340 Q 470 380 390 420" stroke="#0d4b3c" stroke-width="2" fill="none" marker-end="url(#arrow)"/>
  <text x="490" y="390" font-size="10" fill="#0d4b3c">Scored</text>
  <text x="490" y="405" font-size="10" fill="#0d4b3c">Data</text>
  
  <path d="M 180 460 Q 450 550 710 560" stroke="#0d4b3c" stroke-width="2" fill="none" marker-end="url(#arrow)"/>
  <text x="430" y="530" font-size="10" fill="#0d4b3c">Ask Question</text>
  
  <path d="M 710 575 Q 450 580 180 475" stroke="#0d4b3c" stroke-width="2" fill="none" marker-end="url(#arrow)"/>
  <text x="430" y="560" font-size="10" fill="#0d4b3c">Response + Sources</text>
  
  <path d="M 795 530 Q 840 440 885 390" stroke="#0d4b3c" stroke-width="2" fill="none" marker-end="url(#arrow)"/>
  <text x="830" y="460" font-size="10" fill="#0d4b3c">Route</text>
  <text x="830" y="475" font-size="10" fill="#0d4b3c">External Query</text>
  
  <path d="M 870 400 Q 820 470 780 540" stroke="#0d4b3c" stroke-width="2" fill="none" marker-end="url(#arrow)"/>
  <text x="850" y="480" font-size="10" fill="#0d4b3c">External</text>
  <text x="850" y="495" font-size="10" fill="#0d4b3c">Data</text>
  
  <path d="M 950 350 L 1010 270" stroke="#dc7417" stroke-width="2" fill="none" marker-end="url(#arrow-orange)"/>
  <text x="970" y="300" font-size="10" fill="#dc7417">HTTP</text>
  <text x="970" y="315" font-size="10" fill="#dc7417">Fetch</text>
  
  <path d="M 800 570 L 1010 575" stroke="#dc7417" stroke-width="2" fill="none" marker-end="url(#arrow-orange)"/>
  <text x="880" y="565" font-size="10" fill="#dc7417">LLM Fallback</text>
  <text x="880" y="580" font-size="10" fill="#dc7417">(if no match)</text>
  
  <path d="M 1010 590 L 800 585" stroke="#dc7417" stroke-width="2" fill="none" marker-end="url(#arrow-orange)"/>
  <text x="880" y="600" font-size="10" fill="#dc7417">AI Response</text>
  
  <path d="M 730 505 Q 660 350 620 155" stroke="#0d4b3c" stroke-width="2" fill="none" marker-end="url(#arrow)" stroke-dasharray="5,5"/>
  <text x="680" y="330" font-size="10" fill="#0d4b3c">Query</text>
  <text x="680" y="345" font-size="10" fill="#0d4b3c">Village Data</text>
  
  <rect x="50" y="50" width="200" height="130" fill="#fff" stroke="#0d4b3c" stroke-width="1" rx="3"/>
  <text x="60" y="70" font-size="12" font-weight="bold" fill="#0d4b3c">Legend</text>
  <circle cx="75" cy="90" r="8" fill="#0d4b3c"/>
  <text x="90" y="95" font-size="10" fill="#0d4b3c">Process</text>
  <rect x="65" y="110" width="20" height="12" fill="#fff" stroke="#0d4b3c" stroke-width="1.5"/>
  <text x="90" y="120" font-size="10" fill="#0d4b3c">External Entity</text>
  <rect x="65" y="135" width="20" height="12" fill="#fff" stroke="#148064" stroke-width="1.5"/>
  <text x="90" y="145" font-size="10" fill="#0d4b3c">Data Store</text>
  <line x1="65" y1="165" x2="85" y2="165" stroke="#0d4b3c" stroke-width="2" marker-end="url(#arrow)"/>
  <text x="90" y="170" font-size="10" fill="#0d4b3c">Data Flow</text>
  
  <rect x="50" y="820" width="1100" height="60" fill="#fff" stroke="#0d4b3c" stroke-width="1" rx="3"/>
  <text x="60" y="840" font-size="10" fill="#0d4b3c" font-weight="bold">Process Summary:</text>
  <text x="60" y="855" font-size="9" fill="#0d4b3c">1.0 Auth: Login/signup, session management | 2.0 Data &amp; Scoring: Read villages.json, apply weighted scoring (40/25/15/10/10) | 3.0 Dashboard: Render KPIs, map, rankings</text>
  <text x="60" y="870" font-size="9" fill="#0d4b3c">4.0 Chat Engine: Intent analysis, deterministic answers, route external queries | 5.0 External Sources: Fetch from WHO, NDMA, Census, PBS, BHU, Rescue 1122, OSM, SES</text>
</svg>